<?xml version="1.0" encoding="utf-8"?>
<!-- Generator: Adobe Illustrator 22.0.1, SVG Export Plug-In . SVG Version: 6.00 Build 0)  -->
<svg version="1.1" id="Layer_1" xmlns="http://www.w3.org/2000/svg" xmlns:xlink="http://www.w3.org/1999/xlink" x="0px" y="0px"
	 viewBox="0 0 2834.6 2834.6" style="enable-background:new 0 0 2834.6 2834.6;" xml:space="preserve">
<style type="text/css">
	.st0{fill:#6D6E71;stroke:#6D6E71;stroke-width:90;stroke-miterlimit:10;}
	.st1{fill:#6D6E71;stroke:#6D6E71;stroke-width:100;stroke-miterlimit:10;}
	.st2{font-family:'MyriadPro-Regular';}
	.st3{font-size:1254.0133px;}
</style>
<path class="st0" d="M2748.4,241.8c0-100.3-79.9-181.8-178.2-181.8H253.3C155,60,75.1,141.6,75.1,241.8c0,84.5,57,155,133.7,175.3
	V2624l133.7-136.3l267.3,272.7l267.3-272.7l267.3,272.7l267.3-272.7l267.3,272.7l267.3-272.7l267.3,272.7l267.3-272.7l133.7,136.3
	V417.2C2691.3,396.9,2748.4,326.3,2748.4,241.8z M2525.6,2404.5l-44.6-45.4l-267.3,272.7l-267.3-272.7l-267.3,272.7l-267.3-272.7
	l-267.3,272.7l-267.3-272.7l-267.3,272.7l-267.3-272.7l-44.6,45.4V423.6V287.3h2227.7v136.3V2404.5z M2614.7,320.5V196.4H208.8
	v124.1c-26.6-15.7-44.6-45.1-44.6-78.7c0-50.1,40-90.9,89.1-90.9h2316.8c49.1,0,89.1,40.8,89.1,90.9
	C2659.3,275.4,2641.3,304.8,2614.7,320.5z"/>
<text transform="matrix(1.0536 0 0 1 693.79 1699.8506)" class="st1 st2 st3">Q1</text>
</svg>
